<svg xmlns="http://www.w3.org/2000/svg" width="512" height="512" viewBox="0 0 512 512">
  <defs>
    <linearGradient id="g" x1="80" y1="60" x2="420" y2="460" gradientUnits="userSpaceOnUse">
      <stop stop-color="#0D305B" stop-opacity="0.10"></stop>
      <stop offset="1" stop-color="#0D305B" stop-opacity="0.03"></stop>
    </linearGradient>
    <filter id="s" x="-20%" y="-20%" width="140%" height="140%">
      <feDropShadow dx="0" dy="10" stdDeviation="14" flood-color="#0D305B" flood-opacity="0.10"></feDropShadow>
    </filter>
  </defs>

  <!-- soft card -->
  <rect x="64" y="72" width="384" height="368" rx="28" fill="url(#g)" filter="url(#s)"></rect>
  <rect x="64" y="72" width="384" height="368" rx="28" fill="none" stroke="#0D305B" stroke-opacity="0.14" stroke-width="2"></rect>

  <!-- folder icon -->
  <path d="M154 214c0-18 14-32 32-32h64l18 18h74c18 0 32 14 32 32v106c0 18-14 32-32 32H186c-18 0-32-14-32-32V214z" fill="#0D305B" fill-opacity="0.16"></path>
  <path d="M170 216c0-10 8-18 18-18h60l18 18h68c10 0 18 8 18 18v94c0 10-8 18-18 18H188c-10 0-18-8-18-18v-112z" fill="#0D305B" fill-opacity="0.10" stroke="#0D305B" stroke-opacity="0.18" stroke-width="2"></path>

  <!-- label pill -->
  <rect x="172" y="350" width="168" height="44" rx="22" fill="#0D305B" fill-opacity="0.10" stroke="#0D305B" stroke-opacity="0.18" stroke-width="2"></rect>
  <text x="256" y="379" text-anchor="middle" font-family="Arial, sans-serif" font-size="18" fill="#0D305B" fill-opacity="0.75">
    קטגוריה ללא תמונה
  </text>
</svg>
